<svg id="Ebene_1" data-name="Ebene 1" xmlns="http://www.w3.org/2000/svg" viewBox="0 0 274.44 249.54"><defs><style>.cls-1,.cls-3{fill:none;}.cls-1{stroke:#86cabf;stroke-miterlimit:10;}.cls-2{fill:#86cabf;}</style></defs><polygon class="cls-1" points="0.5 8.83 92.19 100.52 142.54 50.18 142.54 117.7 92.47 167.77 47.67 122.96 47.67 202.25 0.5 248.35 0.5 8.83"/><polygon class="cls-1" points="0.5 224.59 0.5 32.97 17.57 25.9 92.19 100.52 125.47 67.25 142.54 74.32 142.54 117.7 139.61 120.63 99.54 160.69 85.4 160.69 47.67 122.96 47.67 202.25 44.66 205.19 17.49 231.74 0.5 224.59"/><polygon class="cls-2" points="10.5 224.59 10.5 32.97 92.19 114.66 132.54 74.32 132.54 113.56 92.47 153.62 37.67 98.82 37.67 198.03 10.5 224.59"/><polygon class="cls-1" points="144.68 48.39 191.87 1.21 191.87 129 144.68 176.18 144.68 48.39"/><polygon class="cls-1" points="144.68 152.04 144.68 52.53 144.68 48.39 174.79 18.28 191.87 25.35 191.87 129 188.94 131.93 161.75 159.11 144.68 152.04"/><polygon class="cls-2" points="154.68 152.04 181.87 124.86 181.87 25.35 154.68 52.53 154.68 152.04"/><polygon class="cls-3" points="131.4 199.47 177.67 151.65 274.44 151.65 274.44 199.47 131.4 199.47"/><path class="cls-2" d="M297.63,156.09" transform="translate(-115.59 -131.27)"/><path class="cls-2" d="M248.13,205.59" transform="translate(-115.59 -131.27)"/><path class="cls-2" d="M270.28,283.31" transform="translate(-115.59 -131.27)"/><path class="cls-2" d="M239.58,252.61" transform="translate(-115.59 -131.27)"/><polygon class="cls-1" points="130.86 199.75 177.06 151.92 273.85 151.92 273.85 199.75 130.86 199.75"/><polygon class="cls-1" points="154.42 199.75 147.23 182.81 174.12 154.97 177.06 151.92 263.85 151.92 273.85 161.92 273.85 189.75 263.85 199.75 154.42 199.75"/><polygon class="cls-2" points="154.42 189.75 181.31 161.92 263.85 161.92 263.85 189.75 154.42 189.75"/></svg>